<?xml version="1.0" encoding="UTF-8"?>
<svg xmlns="http://www.w3.org/2000/svg" xmlns:xlink="http://www.w3.org/1999/xlink" width="662.6pt" height="208.9pt" viewBox="0 0 662.6 208.9" version="1.1">
<defs>
<clipPath id="clip1">
  <path d="M 0 123 L 180 123 L 180 208.898438 L 0 208.898438 Z M 0 123 "/>
</clipPath>
<clipPath id="clip2">
  <path d="M 233 109 L 662.601563 109 L 662.601563 128 L 233 128 Z M 233 109 "/>
</clipPath>
</defs>
<g id="surface1">
<path style=" stroke:none;fill-rule:evenodd;fill:rgb(6.272888%,16.479492%,51.367188%);fill-opacity:1;" d="M 90.402344 171.9375 C 134.789063 171.9375 170.777344 135.949219 170.777344 91.5625 C 170.777344 47.171875 134.789063 11.1875 90.402344 11.1875 C 46.011719 11.1875 10.027344 47.171875 10.027344 91.5625 C 10.027344 135.949219 46.011719 171.9375 90.402344 171.9375 Z M 90.402344 171.9375 "/>
<path style=" stroke:none;fill-rule:evenodd;fill:rgb(100%,100%,100%);fill-opacity:1;" d="M 90.402344 168.9375 C 133.132813 168.9375 167.777344 134.292969 167.777344 91.5625 C 167.777344 48.828125 133.132813 14.1875 90.402344 14.1875 C 47.667969 14.1875 13.027344 48.828125 13.027344 91.5625 C 13.027344 134.292969 47.667969 168.9375 90.402344 168.9375 Z M 90.402344 168.9375 "/>
<g clip-path="url(#clip1)" clip-rule="nonzero">
<path style=" stroke:none;fill-rule:evenodd;fill:rgb(6.272888%,16.479492%,51.367188%);fill-opacity:1;" d="M 0.0273438 123.632813 L 32.335938 147.136719 L 19.679688 148.042969 C 35.078125 159.238281 53.777344 187.589844 71.390625 169.675781 L 109.445313 169.667969 C 116.566406 184.359375 142.0625 168.050781 158.929688 148.121094 L 147.773438 147.851563 L 179.777344 123.632813 L 176.386719 164.15625 L 171.027344 153.878906 C 138.746094 201.214844 111.210938 182.046875 90.304688 208.882813 C 73.460938 183.628906 40.121094 201.628906 9.027344 154.128906 L 4.488281 163.988281 Z M 0.0273438 123.632813 "/>
</g>
<path style=" stroke:none;fill-rule:evenodd;fill:rgb(100%,100%,100%);fill-opacity:1;" d="M 27.683594 168.453125 L 29.964844 170.171875 C 29.726563 170.542969 29.605469 170.878906 29.605469 171.175781 C 29.601563 171.65625 29.816406 172.085938 30.253906 172.457031 C 30.578125 172.734375 30.890625 172.875 31.191406 172.878906 C 31.492188 172.886719 31.722656 172.792969 31.882813 172.601563 C 32.039063 172.417969 32.09375 172.1875 32.050781 171.902344 C 32.003906 171.617188 31.730469 171.152344 31.226563 170.503906 C 30.40625 169.4375 29.933594 168.546875 29.808594 167.832031 C 29.675781 167.113281 29.84375 166.480469 30.308594 165.929688 C 30.613281 165.574219 31.011719 165.328125 31.503906 165.195313 C 32 165.058594 32.542969 165.089844 33.140625 165.285156 C 33.738281 165.476563 34.421875 165.902344 35.191406 166.554688 C 36.136719 167.359375 36.714844 168.136719 36.929688 168.894531 C 37.140625 169.648438 36.984375 170.429688 36.460938 171.238281 L 34.210938 169.53125 C 34.421875 169.164063 34.5 168.828125 34.4375 168.53125 C 34.378906 168.230469 34.1875 167.941406 33.863281 167.667969 C 33.597656 167.441406 33.351563 167.324219 33.125 167.316406 C 32.902344 167.308594 32.722656 167.382813 32.59375 167.535156 C 32.5 167.648438 32.46875 167.792969 32.503906 167.976563 C 32.527344 168.15625 32.710938 168.460938 33.046875 168.882813 C 33.871094 169.933594 34.410156 170.75 34.664063 171.324219 C 34.917969 171.898438 35.015625 172.425781 34.949219 172.902344 C 34.882813 173.378906 34.6875 173.808594 34.359375 174.191406 C 33.980469 174.640625 33.496094 174.941406 32.910156 175.101563 C 32.324219 175.253906 31.714844 175.234375 31.078125 175.027344 C 30.441406 174.824219 29.765625 174.417969 29.046875 173.808594 C 27.789063 172.742188 27.113281 171.769531 27.019531 170.898438 C 26.925781 170.03125 27.148438 169.214844 27.683594 168.453125 Z M 39.644531 179.070313 L 36.761719 177.265625 L 35.546875 178.292969 L 32.949219 176.671875 L 40.921875 170.808594 L 43.707031 172.546875 L 41.917969 182.277344 L 39.253906 180.613281 Z M 40.164063 177.042969 L 41.015625 173.679688 L 38.359375 175.917969 Z M 46.890625 174.148438 L 49.621094 175.410156 L 45.757813 183.757813 L 43.027344 182.496094 Z M 53.328125 183.246094 L 53.9375 181.429688 L 58.335938 182.90625 L 57.089844 186.613281 C 56.066406 186.875 55.195313 186.996094 54.484375 186.976563 C 53.773438 186.957031 52.972656 186.796875 52.085938 186.5 C 50.992188 186.132813 50.160156 185.65625 49.589844 185.074219 C 49.019531 184.492188 48.664063 183.785156 48.519531 182.960938 C 48.371094 182.136719 48.453125 181.273438 48.757813 180.367188 C 49.074219 179.417969 49.5625 178.660156 50.210938 178.09375 C 50.859375 177.53125 51.648438 177.199219 52.566406 177.105469 C 53.285156 177.03125 54.171875 177.171875 55.226563 177.527344 C 56.242188 177.867188 56.976563 178.210938 57.421875 178.554688 C 57.867188 178.898438 58.195313 179.308594 58.402344 179.789063 C 58.613281 180.265625 58.707031 180.816406 58.683594 181.433594 L 55.789063 180.980469 C 55.789063 180.613281 55.679688 180.292969 55.46875 180.027344 C 55.261719 179.761719 54.945313 179.558594 54.527344 179.417969 C 53.90625 179.210938 53.339844 179.25 52.832031 179.535156 C 52.320313 179.820313 51.917969 180.40625 51.621094 181.292969 C 51.304688 182.234375 51.265625 182.972656 51.503906 183.503906 C 51.742188 184.03125 52.195313 184.410156 52.867188 184.632813 C 53.183594 184.742188 53.5 184.800781 53.816406 184.808594 C 54.132813 184.816406 54.515625 184.78125 54.957031 184.699219 L 55.230469 183.882813 Z M 58.984375 183.976563 C 59.316406 182.511719 60.007813 181.472656 61.054688 180.855469 C 62.105469 180.238281 63.394531 180.105469 64.933594 180.457031 C 66.511719 180.816406 67.632813 181.496094 68.300781 182.488281 C 68.972656 183.484375 69.140625 184.707031 68.808594 186.148438 C 68.570313 187.195313 68.1875 188.011719 67.664063 188.597656 C 67.136719 189.179688 66.480469 189.578125 65.691406 189.792969 C 64.898438 190.003906 63.980469 189.988281 62.929688 189.75 C 61.863281 189.503906 61.015625 189.140625 60.386719 188.660156 C 59.765625 188.175781 59.3125 187.539063 59.039063 186.742188 C 58.761719 185.945313 58.742188 185.023438 58.984375 183.976563 Z M 61.902344 184.652344 C 61.699219 185.554688 61.726563 186.246094 61.992188 186.722656 C 62.257813 187.199219 62.699219 187.507813 63.308594 187.648438 C 63.9375 187.792969 64.472656 187.710938 64.902344 187.402344 C 65.339844 187.09375 65.667969 186.441406 65.898438 185.4375 C 66.089844 184.59375 66.050781 183.933594 65.78125 183.464844 C 65.507813 182.992188 65.066406 182.6875 64.449219 182.546875 C 63.859375 182.410156 63.335938 182.5 62.890625 182.8125 C 62.441406 183.125 62.113281 183.738281 61.902344 184.652344 Z M 70.582031 181.992188 L 73.355469 182.363281 L 76.296875 187.875 L 76.964844 182.84375 L 79.777344 183.214844 L 78.5625 192.332031 L 75.753906 191.960938 L 72.828125 186.476563 L 72.164063 191.480469 L 69.367188 191.109375 Z M 85.0625 183.789063 L 87.863281 183.78125 L 91.515625 188.847656 L 91.503906 183.769531 L 94.335938 183.761719 L 94.363281 192.960938 L 91.527344 192.96875 L 87.894531 187.929688 L 87.90625 192.980469 L 85.085938 192.988281 Z M 95.492188 183.890625 L 103.484375 183.125 L 103.671875 185.082031 L 98.675781 185.558594 L 98.816406 187.015625 L 103.445313 186.574219 L 103.625 188.441406 L 98.992188 188.882813 L 99.164063 190.6875 L 104.308594 190.195313 L 104.507813 192.265625 L 96.367188 193.046875 Z M 103.40625 183.484375 L 106.203125 182.933594 L 108.199219 187.773438 L 108.679688 182.449219 L 111.453125 181.902344 L 113.929688 186.65625 L 113.949219 181.414063 L 116.730469 180.867188 L 116.402344 190.304688 L 113.515625 190.871094 L 110.726563 185.519531 L 110.179688 191.527344 L 107.296875 192.09375 Z M 116.695313 180.851563 L 121.457031 179.363281 C 122.496094 179.039063 123.347656 179.03125 124.007813 179.335938 C 124.671875 179.644531 125.140625 180.230469 125.410156 181.09375 C 125.6875 181.980469 125.621094 182.761719 125.214844 183.4375 C 124.804688 184.113281 124.023438 184.632813 122.867188 184.996094 L 121.296875 185.484375 L 122.3125 188.734375 L 119.4375 189.632813 Z M 120.742188 183.707031 L 121.445313 183.488281 C 122.003906 183.3125 122.363281 183.097656 122.53125 182.847656 C 122.699219 182.59375 122.738281 182.328125 122.652344 182.042969 C 122.5625 181.765625 122.394531 181.5625 122.136719 181.433594 C 121.882813 181.300781 121.488281 181.320313 120.949219 181.488281 L 120.128906 181.746094 Z M 126.566406 182.679688 C 125.945313 181.3125 125.863281 180.0625 126.324219 178.9375 C 126.785156 177.8125 127.730469 176.921875 129.167969 176.273438 C 130.640625 175.605469 131.945313 175.464844 133.078125 175.847656 C 134.214844 176.238281 135.089844 177.105469 135.699219 178.453125 C 136.144531 179.433594 136.335938 180.3125 136.269531 181.097656 C 136.207031 181.878906 135.921875 182.59375 135.425781 183.242188 C 134.925781 183.890625 134.183594 184.433594 133.203125 184.878906 C 132.207031 185.332031 131.3125 185.558594 130.519531 185.554688 C 129.730469 185.546875 128.984375 185.3125 128.28125 184.84375 C 127.582031 184.378906 127.011719 183.65625 126.566406 182.679688 Z M 129.296875 181.445313 C 129.679688 182.289063 130.125 182.824219 130.621094 183.042969 C 131.125 183.257813 131.660156 183.238281 132.230469 182.980469 C 132.820313 182.710938 133.195313 182.324219 133.351563 181.816406 C 133.511719 181.308594 133.378906 180.589844 132.953125 179.648438 C 132.59375 178.863281 132.164063 178.363281 131.664063 178.152344 C 131.160156 177.941406 130.625 177.964844 130.046875 178.226563 C 129.496094 178.476563 129.136719 178.867188 128.96875 179.386719 C 128.800781 179.90625 128.910156 180.59375 129.296875 181.445313 Z M 139.066406 181.867188 L 134.128906 174.109375 L 138.34375 171.425781 C 139.125 170.925781 139.765625 170.609375 140.257813 170.476563 C 140.753906 170.335938 141.238281 170.363281 141.710938 170.542969 C 142.183594 170.726563 142.578125 171.066406 142.890625 171.5625 C 143.164063 171.992188 143.304688 172.425781 143.308594 172.863281 C 143.316406 173.300781 143.210938 173.722656 142.992188 174.136719 C 142.855469 174.394531 142.625 174.6875 142.300781 175.007813 C 142.664063 174.910156 142.941406 174.867188 143.140625 174.875 C 143.273438 174.878906 143.496094 174.929688 143.804688 175.027344 C 144.113281 175.121094 144.332031 175.207031 144.464844 175.28125 L 147.121094 176.742188 L 144.261719 178.5625 L 141.402344 177.058594 C 141.035156 176.859375 140.757813 176.757813 140.566406 176.75 C 140.304688 176.746094 140.058594 176.820313 139.828125 176.96875 L 139.605469 177.109375 L 141.605469 180.253906 Z M 138.675781 175.644531 L 139.746094 174.964844 C 139.859375 174.890625 140.0625 174.714844 140.347656 174.429688 C 140.496094 174.292969 140.582031 174.125 140.601563 173.925781 C 140.625 173.726563 140.582031 173.542969 140.476563 173.371094 C 140.316406 173.121094 140.109375 172.980469 139.855469 172.957031 C 139.601563 172.925781 139.246094 173.058594 138.78125 173.355469 L 137.667969 174.0625 Z M 141.039063 169.652344 L 147.847656 163.570313 L 149.359375 165.265625 L 147.074219 167.308594 L 151.691406 172.46875 L 149.457031 174.46875 L 144.839844 169.304688 L 142.554688 171.347656 Z M 141.039063 169.652344 "/>
<path style="fill:none;stroke-width:7.087;stroke-linecap:butt;stroke-linejoin:miter;stroke:rgb(6.272888%,16.479492%,51.367188%);stroke-opacity:1;stroke-miterlimit:4;" d="M 720.15625 1934.859375 C 434.53125 1646.539063 407.578125 774.390625 716.09375 413.882813 " transform="matrix(0.1,0,0,-0.1,0,208.9)"/>
<path style="fill:none;stroke-width:7.087;stroke-linecap:butt;stroke-linejoin:miter;stroke:rgb(6.272888%,16.479492%,51.367188%);stroke-opacity:1;stroke-miterlimit:4;" d="M 904.960938 1952.125 L 884.023438 392.28125 " transform="matrix(0.1,0,0,-0.1,0,208.9)"/>
<path style="fill:none;stroke-width:7.087;stroke-linecap:butt;stroke-linejoin:miter;stroke:rgb(6.272888%,16.479492%,51.367188%);stroke-opacity:1;stroke-miterlimit:4;" d="M 1086.601563 1931.578125 C 1415.78125 1546.34375 1329.960938 674.507813 1091.601563 414.273438 " transform="matrix(0.1,0,0,-0.1,0,208.9)"/>
<path style="fill:none;stroke-width:7.087;stroke-linecap:butt;stroke-linejoin:miter;stroke:rgb(6.272888%,16.479492%,51.367188%);stroke-opacity:1;stroke-miterlimit:4;" d="M 165.351563 926.34375 C 406.757813 681.734375 1222.1875 563.453125 1644.492188 923.257813 " transform="matrix(0.1,0,0,-0.1,0,208.9)"/>
<path style="fill:none;stroke-width:7.087;stroke-linecap:butt;stroke-linejoin:miter;stroke:rgb(6.272888%,16.479492%,51.367188%);stroke-opacity:1;stroke-miterlimit:4;" d="M 1646.132813 1415.796875 C 1154.6875 1811.8125 648.085938 1755.914063 163.359375 1425.210938 " transform="matrix(0.1,0,0,-0.1,0,208.9)"/>
<path style=" stroke:none;fill-rule:evenodd;fill:rgb(89.0625%,0%,8.616638%);fill-opacity:1;" d="M 138.828125 31.210938 C 91.078125 67.960938 50.058594 -0.0429688 23.574219 56.496094 L 62.308594 119.628906 C 91.714844 81.160156 144.339844 129.160156 173.21875 107.660156 C 165.96875 79.410156 144.214844 65.410156 138.828125 31.210938 Z M 138.828125 31.210938 "/>
<path style=" stroke:none;fill-rule:evenodd;fill:rgb(6.272888%,16.479492%,51.367188%);fill-opacity:1;" d="M 9.964844 36.6875 L 13.714844 50.875 L 18.761719 55.085938 L 89.777344 171.933594 L 94.34375 171.839844 L 20.613281 51.664063 L 20.339844 46.25 Z M 9.964844 36.6875 "/>
<path style=" stroke:none;fill-rule:evenodd;fill:rgb(100%,92.576599%,0%);fill-opacity:1;" d="M 70.5625 63.222656 L 65.15625 54.410156 C 65.15625 54.410156 57.78125 54.097656 57.03125 58.972656 C 56.28125 63.847656 58.65625 68.847656 65.09375 69.972656 C 71.53125 71.097656 80.65625 72.847656 82.90625 84.035156 C 81.84375 72.535156 74.441406 69.308594 66.90625 68.222656 C 53.566406 66.300781 60.898438 55.449219 64.714844 57.351563 Z M 66.21875 80.035156 L 72.65625 89.035156 C 72.65625 89.035156 81.15625 90.097656 80.96875 85.847656 C 80.78125 81.597656 78.96875 74.222656 69.78125 72.847656 C 60.59375 71.472656 62.78125 73.285156 56.96875 65.722656 C 59.34375 75.597656 63.90625 73.785156 68.78125 74.410156 C 73.65625 75.035156 79.78125 80.035156 78.84375 83.972656 C 77.90625 87.910156 73.59375 86.097656 73.59375 86.097656 Z M 92.652344 86.097656 L 94.714844 83.410156 L 81.152344 62.722656 L 68.277344 53.410156 L 74.027344 53.285156 L 119.527344 89.160156 L 119.277344 91.660156 L 84.902344 64.597656 L 96.839844 83.285156 L 100.714844 85.847656 Z M 96.777344 58.097656 L 105.964844 59.597656 L 104.339844 64.160156 L 118.777344 86.160156 L 76.589844 54.160156 L 80.339844 54.160156 L 111.839844 79.410156 L 101.402344 62.222656 Z M 109.402344 60.285156 L 112.089844 61.972656 L 127.652344 87.785156 L 127.089844 92.035156 L 132.152344 92.160156 L 114.421875 62.878906 L 114.339844 60.347656 Z M 133.714844 93.035156 L 139.277344 93.160156 L 135.808594 90.785156 L 129.117188 80.207031 C 129.117188 80.207031 134.714844 80.753906 134.652344 77.566406 C 134.589844 74.378906 128.933594 60.410156 124.902344 59.972656 C 120.871094 59.535156 116.464844 60.410156 116.464844 60.410156 L 116.765625 63.316406 L 133.589844 90.910156 Z M 119.429688 62.441406 L 127.304688 77.253906 L 131.242188 77.128906 C 131.242188 77.128906 132.242188 77.191406 131.742188 74.566406 C 131.242188 71.941406 125.929688 62.691406 125.929688 62.691406 C 125.929688 62.691406 125.804688 61.253906 119.429688 62.441406 Z M 126.617188 59.691406 C 129.871094 60.855469 136.898438 72.253906 135.804688 79.253906 C 138.460938 70.441406 130.429688 59.128906 126.617188 59.691406 Z M 126.617188 59.691406 "/>
<path style=" stroke:none;fill-rule:evenodd;fill:rgb(10.594177%,9.812927%,9.423828%);fill-opacity:1;" d="M 239.316406 74.796875 L 239.316406 90.945313 L 237.539063 90.945313 L 237.539063 74.796875 L 233.457031 74.796875 L 233.457031 73.183594 L 243.375 73.183594 L 243.375 74.796875 Z M 263.367188 82.0625 C 263.367188 84.609375 262.429688 86.785156 260.554688 88.589844 C 258.710938 90.371094 256.507813 91.261719 253.953125 91.261719 C 251.441406 91.261719 249.253906 90.378906 247.394531 88.613281 C 245.507813 86.820313 244.570313 84.667969 244.570313 82.160156 C 244.570313 79.578125 245.484375 77.382813 247.320313 75.570313 C 249.148438 73.773438 251.359375 72.875 253.953125 72.875 C 256.515625 72.875 258.722656 73.765625 260.566406 75.546875 C 262.433594 77.347656 263.367188 79.519531 263.367188 82.0625 Z M 261.585938 82.085938 C 261.585938 80.003906 260.832031 78.210938 259.332031 76.71875 C 257.832031 75.226563 256.042969 74.480469 253.953125 74.480469 C 251.84375 74.480469 250.050781 75.234375 248.566406 76.742188 C 247.089844 78.25 246.347656 80.054688 246.347656 82.160156 C 246.347656 84.203125 247.109375 85.964844 248.625 87.441406 C 250.125 88.910156 251.902344 89.648438 253.953125 89.648438 C 256.035156 89.648438 257.820313 88.90625 259.320313 87.429688 C 260.828125 85.953125 261.585938 84.175781 261.585938 82.085938 Z M 259.207031 65.808594 C 259.207031 66.171875 259.097656 66.523438 258.878906 66.863281 C 258.820313 66.949219 258.734375 67.058594 258.609375 67.191406 L 258.453125 67.359375 L 257.972656 67.828125 C 257.882813 67.933594 257.789063 68.050781 257.707031 68.179688 C 257.566406 68.386719 257.480469 68.726563 257.457031 69.195313 L 255.96875 69.195313 L 255.96875 68.878906 C 255.96875 68.484375 256.082031 68.09375 256.296875 67.71875 C 256.359375 67.609375 256.464844 67.46875 256.617188 67.296875 C 256.675781 67.226563 256.78125 67.125 256.921875 66.996094 L 257.238281 66.6875 C 257.335938 66.578125 257.433594 66.46875 257.515625 66.359375 C 257.640625 66.191406 257.707031 66 257.707031 65.785156 C 257.707031 65.457031 257.605469 65.199219 257.402344 65.015625 C 257.171875 64.800781 256.9375 64.695313 256.683594 64.695313 C 256.324219 64.695313 256.039063 64.859375 255.816406 65.1875 C 255.742188 65.304688 255.6875 65.4375 255.664063 65.585938 C 255.648438 65.675781 255.640625 65.910156 255.640625 66.300781 L 254.128906 66.300781 L 254.128906 65.847656 C 254.128906 65.210938 254.394531 64.648438 254.917969 64.160156 C 255.402344 63.710938 255.996094 63.492188 256.710938 63.492188 C 257.4375 63.492188 258.027344 63.707031 258.476563 64.144531 C 258.960938 64.621094 259.207031 65.179688 259.207031 65.808594 Z M 256.089844 71.703125 L 254.023438 69.945313 L 251.917969 71.703125 L 249.726563 71.703125 L 253.207031 68.703125 L 254.789063 68.703125 L 258.222656 71.703125 Z M 278.542969 90.945313 L 268.003906 75.328125 L 267.960938 75.328125 L 267.960938 90.945313 L 266.175781 90.945313 L 266.175781 73.183594 L 268.582031 73.183594 L 278.492188 87.921875 L 278.542969 87.921875 L 278.542969 73.183594 L 280.308594 73.183594 L 280.308594 90.945313 Z M 302 82.789063 C 301.804688 85.203125 300.796875 87.222656 298.976563 88.851563 C 297.171875 90.457031 295.054688 91.261719 292.613281 91.261719 C 290.0625 91.261719 287.839844 90.371094 285.957031 88.589844 C 284.046875 86.777344 283.085938 84.601563 283.085938 82.0625 C 283.085938 79.503906 284.039063 77.324219 285.933594 75.527344 C 287.792969 73.757813 290.011719 72.875 292.589844 72.875 C 295.519531 72.875 297.9375 73.960938 299.84375 76.132813 C 300.359375 76.710938 300.742188 77.304688 300.992188 77.914063 L 298.929688 77.914063 C 298.320313 76.859375 297.417969 76.019531 296.226563 75.382813 C 295.074219 74.78125 293.875 74.480469 292.613281 74.480469 C 290.496094 74.480469 288.679688 75.21875 287.164063 76.695313 C 285.632813 78.183594 284.871094 79.976563 284.871094 82.085938 C 284.871094 84.210938 285.640625 86.011719 287.1875 87.480469 C 288.722656 88.921875 290.554688 89.648438 292.683594 89.648438 C 294.285156 89.648438 295.773438 89.160156 297.148438 88.183594 C 298.570313 87.175781 299.476563 85.910156 299.871094 84.394531 L 289.953125 84.394531 L 289.953125 82.789063 Z M 328.203125 86.292969 C 326.398438 89.605469 323.667969 91.261719 320.019531 91.261719 C 317.457031 91.261719 315.273438 90.375 313.457031 88.601563 C 311.636719 86.8125 310.730469 84.640625 310.730469 82.085938 C 310.730469 79.503906 311.625 77.324219 313.425781 75.546875 C 315.214844 73.78125 317.40625 72.898438 319.996094 72.898438 C 322.800781 72.898438 325.136719 73.953125 327.003906 76.0625 C 327.519531 76.640625 327.898438 77.203125 328.128906 77.75 L 326.136719 77.75 C 324.683594 75.585938 322.625 74.507813 319.960938 74.507813 C 317.941406 74.507813 316.183594 75.269531 314.703125 76.800781 C 313.242188 78.308594 312.507813 80.078125 312.507813 82.109375 C 312.507813 84.109375 313.257813 85.863281 314.75 87.371094 C 316.25 88.886719 317.996094 89.648438 319.996094 89.648438 C 321.242188 89.648438 322.410156 89.34375 323.5 88.730469 C 324.515625 88.15625 325.421875 87.34375 326.210938 86.292969 Z M 349.039063 82.0625 C 349.039063 84.609375 348.101563 86.785156 346.226563 88.589844 C 344.382813 90.371094 342.179688 91.261719 339.625 91.261719 C 337.113281 91.261719 334.925781 90.378906 333.066406 88.613281 C 331.179688 86.820313 330.242188 84.667969 330.242188 82.160156 C 330.242188 79.578125 331.15625 77.382813 332.992188 75.570313 C 334.820313 73.773438 337.035156 72.875 339.625 72.875 C 342.1875 72.875 344.394531 73.765625 346.238281 75.546875 C 348.105469 77.347656 349.039063 79.519531 349.039063 82.0625 Z M 347.257813 82.085938 C 347.257813 80.003906 346.503906 78.210938 345.003906 76.71875 C 343.503906 75.226563 341.714844 74.480469 339.625 74.480469 C 337.515625 74.480469 335.722656 75.234375 334.238281 76.742188 C 332.761719 78.25 332.019531 80.054688 332.019531 82.160156 C 332.019531 84.203125 332.78125 85.964844 334.296875 87.441406 C 335.796875 88.910156 337.574219 89.648438 339.625 89.648438 C 341.707031 89.648438 343.492188 88.90625 344.992188 87.429688 C 346.5 85.953125 347.257813 84.175781 347.257813 82.085938 Z M 341.761719 71.703125 L 339.695313 69.945313 L 337.589844 71.703125 L 335.398438 71.703125 L 338.878906 68.703125 L 340.460938 68.703125 L 343.894531 71.703125 Z M 364.214844 90.945313 L 353.675781 75.328125 L 353.632813 75.328125 L 353.632813 90.945313 L 351.847656 90.945313 L 351.847656 73.183594 L 354.253906 73.183594 L 364.164063 87.921875 L 364.214844 87.921875 L 364.214844 73.183594 L 365.980469 73.183594 L 365.980469 90.945313 Z M 387.671875 82.789063 C 387.476563 85.203125 386.46875 87.222656 384.648438 88.851563 C 382.84375 90.457031 380.726563 91.261719 378.285156 91.261719 C 375.734375 91.261719 373.511719 90.371094 371.628906 88.589844 C 369.71875 86.777344 368.757813 84.601563 368.757813 82.0625 C 368.757813 79.503906 369.710938 77.324219 371.605469 75.527344 C 373.464844 73.757813 375.683594 72.875 378.261719 72.875 C 381.191406 72.875 383.609375 73.960938 385.515625 76.132813 C 386.035156 76.710938 386.414063 77.304688 386.664063 77.914063 L 384.601563 77.914063 C 383.992188 76.859375 383.089844 76.019531 381.898438 75.382813 C 380.746094 74.78125 379.546875 74.480469 378.285156 74.480469 C 376.167969 74.480469 374.351563 75.21875 372.835938 76.695313 C 371.304688 78.183594 370.542969 79.976563 370.542969 82.085938 C 370.542969 84.210938 371.3125 86.011719 372.859375 87.480469 C 374.394531 88.921875 376.226563 89.648438 378.355469 89.648438 C 379.957031 89.648438 381.445313 89.160156 382.820313 88.183594 C 384.242188 87.175781 385.148438 85.910156 385.542969 84.394531 L 375.625 84.394531 L 375.625 82.789063 Z M 401.371094 74.796875 L 401.371094 90.945313 L 399.589844 90.945313 L 399.589844 74.796875 L 395.507813 74.796875 L 395.507813 73.183594 L 405.425781 73.183594 L 405.425781 74.796875 Z M 413.558594 85.019531 L 413.558594 90.945313 L 411.777344 90.945313 L 411.777344 85.019531 L 405.613281 73.183594 L 407.582031 73.183594 L 412.644531 83.140625 L 417.847656 73.183594 L 419.792969 73.183594 Z M 432.4375 74.796875 L 432.4375 90.945313 L 430.65625 90.945313 L 430.65625 74.796875 L 426.578125 74.796875 L 426.578125 73.183594 L 436.492188 73.183594 L 436.492188 74.796875 Z M 452.210938 90.945313 L 449.628906 84.96875 L 441.382813 84.96875 L 438.789063 90.945313 L 436.9375 90.945313 L 444.523438 73.183594 L 446.515625 73.183594 L 454.140625 90.945313 Z M 445.53125 75.207031 L 442.050781 83.363281 L 448.9375 83.363281 Z M 447.636719 71.703125 L 445.574219 69.945313 L 443.464844 71.703125 L 441.285156 71.703125 L 444.765625 68.703125 L 446.351563 68.703125 L 449.78125 71.703125 Z M 468.566406 90.945313 L 458.03125 75.328125 L 457.984375 75.328125 L 457.984375 90.945313 L 456.203125 90.945313 L 456.203125 73.183594 L 458.605469 73.183594 L 468.519531 87.921875 L 468.566406 87.921875 L 468.566406 73.183594 L 470.332031 73.183594 L 470.332031 90.945313 Z M 497.308594 86.292969 C 495.503906 89.605469 492.777344 91.261719 489.128906 91.261719 C 486.566406 91.261719 484.382813 90.375 482.566406 88.601563 C 480.746094 86.8125 479.835938 84.640625 479.835938 82.085938 C 479.835938 79.503906 480.734375 77.324219 482.535156 75.546875 C 484.320313 73.78125 486.515625 72.898438 489.105469 72.898438 C 491.910156 72.898438 494.246094 73.953125 496.113281 76.0625 C 496.628906 76.640625 497.007813 77.203125 497.238281 77.75 L 495.246094 77.75 C 493.792969 75.585938 491.734375 74.507813 489.070313 74.507813 C 487.050781 74.507813 485.292969 75.269531 483.808594 76.800781 C 482.351563 78.308594 481.617188 80.078125 481.617188 82.109375 C 481.617188 84.109375 482.367188 85.863281 483.859375 87.371094 C 485.359375 88.886719 487.105469 89.648438 489.105469 89.648438 C 490.351563 89.648438 491.519531 89.34375 492.609375 88.730469 C 493.625 88.15625 494.53125 87.34375 495.316406 86.292969 Z M 513.871094 90.945313 L 511.289063 84.96875 L 503.042969 84.96875 L 500.449219 90.945313 L 498.597656 90.945313 L 506.183594 73.183594 L 508.171875 73.183594 L 515.800781 90.945313 Z M 507.191406 75.207031 L 503.710938 83.363281 L 510.597656 83.363281 Z M 509.824219 68.867188 C 509.824219 69.226563 509.71875 69.578125 509.496094 69.921875 C 509.441406 70.011719 509.355469 70.117188 509.230469 70.25 L 509.078125 70.414063 L 508.59375 70.882813 C 508.5 70.996094 508.410156 71.109375 508.324219 71.234375 C 508.1875 71.445313 508.101563 71.785156 508.078125 72.253906 L 506.589844 72.253906 L 506.589844 71.9375 C 506.589844 71.539063 506.703125 71.15625 506.917969 70.777344 C 506.980469 70.671875 507.085938 70.527344 507.234375 70.359375 C 507.296875 70.285156 507.402344 70.1875 507.542969 70.050781 L 507.859375 69.746094 C 507.957031 69.636719 508.054688 69.527344 508.136719 69.417969 C 508.261719 69.246094 508.324219 69.054688 508.324219 68.847656 C 508.324219 68.519531 508.226563 68.257813 508.023438 68.070313 C 507.792969 67.859375 507.558594 67.753906 507.304688 67.753906 C 506.945313 67.753906 506.65625 67.917969 506.4375 68.246094 C 506.363281 68.363281 506.308594 68.5 506.285156 68.644531 C 506.269531 68.730469 506.261719 68.96875 506.261719 69.359375 L 504.75 69.359375 L 504.75 68.902344 C 504.75 68.269531 505.015625 67.707031 505.539063 67.214844 C 506.023438 66.769531 506.617188 66.546875 507.328125 66.546875 C 508.058594 66.546875 508.644531 66.765625 509.097656 67.203125 C 509.582031 67.683594 509.824219 68.234375 509.824219 68.867188 Z M 530.226563 90.945313 L 519.691406 75.328125 L 519.644531 75.328125 L 519.644531 90.945313 L 517.863281 90.945313 L 517.863281 73.183594 L 520.265625 73.183594 L 530.179688 87.921875 L 530.226563 87.921875 L 530.226563 73.183594 L 531.992188 73.183594 L 531.992188 90.945313 Z M 553.6875 82.789063 C 553.488281 85.203125 552.480469 87.222656 550.660156 88.851563 C 548.859375 90.457031 546.738281 91.261719 544.296875 91.261719 C 541.746094 91.261719 539.527344 90.371094 537.640625 88.589844 C 535.730469 86.777344 534.769531 84.601563 534.769531 82.0625 C 534.769531 79.503906 535.722656 77.324219 537.617188 75.527344 C 539.476563 73.757813 541.699219 72.875 544.273438 72.875 C 547.207031 72.875 549.621094 73.960938 551.53125 76.132813 C 552.046875 76.710938 552.425781 77.304688 552.679688 77.914063 L 550.613281 77.914063 C 550.003906 76.859375 549.101563 76.019531 547.910156 75.382813 C 546.757813 74.78125 545.558594 74.480469 544.296875 74.480469 C 542.179688 74.480469 540.367188 75.21875 538.851563 76.695313 C 537.316406 78.183594 536.554688 79.976563 536.554688 82.085938 C 536.554688 84.210938 537.324219 86.011719 538.875 87.480469 C 540.40625 88.921875 542.238281 89.648438 544.371094 89.648438 C 545.96875 89.648438 547.457031 89.160156 548.832031 88.183594 C 550.253906 87.175781 551.160156 85.910156 551.554688 84.394531 L 541.636719 84.394531 L 541.636719 82.789063 Z M 572.738281 86.046875 C 572.738281 87.519531 572.210938 88.753906 571.152344 89.761719 C 570.117188 90.761719 568.859375 91.261719 567.382813 91.261719 C 565.796875 91.261719 564.492188 90.777344 563.476563 89.808594 C 562.457031 88.84375 561.933594 87.5625 561.910156 85.976563 L 563.691406 85.976563 C 563.792969 88.421875 565.023438 89.648438 567.382813 89.648438 C 568.375 89.648438 569.214844 89.3125 569.902344 88.636719 C 570.605469 87.949219 570.957031 87.109375 570.957031 86.117188 C 570.957031 85.046875 570.539063 84.191406 569.703125 83.539063 C 569.367188 83.28125 568.945313 83.042969 568.4375 82.828125 C 568.054688 82.671875 567.574219 82.507813 566.992188 82.335938 C 566.253906 82.113281 565.65625 81.90625 565.214844 81.710938 C 564.621094 81.460938 564.132813 81.183594 563.75 80.867188 C 562.84375 80.117188 562.390625 79.042969 562.390625 77.644531 C 562.390625 76.261719 562.878906 75.117188 563.855469 74.210938 C 564.8125 73.324219 565.988281 72.875 567.382813 72.875 C 568.757813 72.875 569.917969 73.335938 570.863281 74.246094 C 571.820313 75.179688 572.300781 76.332031 572.300781 77.703125 L 570.523438 77.703125 C 570.523438 76.832031 570.21875 76.074219 569.609375 75.441406 C 568.988281 74.800781 568.25 74.480469 567.382813 74.480469 C 566.480469 74.480469 565.726563 74.773438 565.109375 75.359375 C 564.480469 75.945313 564.167969 76.6875 564.167969 77.574219 C 564.167969 78.605469 564.644531 79.390625 565.601563 79.929688 C 565.953125 80.125 566.410156 80.316406 566.96875 80.496094 L 568.390625 80.914063 C 569.742188 81.324219 570.785156 81.925781 571.519531 82.730469 C 572.328125 83.621094 572.738281 84.726563 572.738281 86.046875 Z M 588.875 90.945313 L 586.292969 84.96875 L 578.046875 84.96875 L 575.453125 90.945313 L 573.601563 90.945313 L 581.1875 73.183594 L 583.179688 73.183594 L 590.804688 90.945313 Z M 582.195313 75.207031 L 578.714844 83.363281 L 585.601563 83.363281 Z M 584.070313 72.175781 L 579.308594 69.605469 L 580.082031 68.167969 L 584.867188 70.789063 Z M 592.890625 90.945313 L 592.890625 73.183594 L 594.667969 73.183594 L 594.667969 90.945313 Z M 623 82.789063 C 622.800781 85.203125 621.792969 87.222656 619.972656 88.851563 C 618.171875 90.457031 616.050781 91.261719 613.609375 91.261719 C 611.058594 91.261719 608.839844 90.371094 606.953125 88.589844 C 605.042969 86.777344 604.082031 84.601563 604.082031 82.0625 C 604.082031 79.503906 605.035156 77.324219 606.929688 75.527344 C 608.789063 73.757813 611.011719 72.875 613.585938 72.875 C 616.519531 72.875 618.933594 73.960938 620.84375 76.132813 C 621.359375 76.710938 621.738281 77.304688 621.988281 77.914063 L 619.925781 77.914063 C 619.316406 76.859375 618.414063 76.019531 617.222656 75.382813 C 616.070313 74.78125 614.871094 74.480469 613.609375 74.480469 C 611.492188 74.480469 609.679688 75.21875 608.164063 76.695313 C 606.628906 78.183594 605.867188 79.976563 605.867188 82.085938 C 605.867188 84.210938 606.636719 86.011719 608.1875 87.480469 C 609.71875 88.921875 611.550781 89.648438 613.683594 89.648438 C 615.28125 89.648438 616.769531 89.160156 618.144531 88.183594 C 619.566406 87.175781 620.472656 85.910156 620.867188 84.394531 L 610.949219 84.394531 L 610.949219 82.789063 Z M 643.878906 82.0625 C 643.878906 84.609375 642.941406 86.785156 641.066406 88.589844 C 639.222656 90.371094 637.023438 91.261719 634.464844 91.261719 C 631.953125 91.261719 629.765625 90.378906 627.90625 88.613281 C 626.023438 86.820313 625.082031 84.667969 625.082031 82.160156 C 625.082031 79.578125 626 77.382813 627.835938 75.570313 C 629.664063 73.773438 631.875 72.875 634.464844 72.875 C 637.03125 72.875 639.234375 73.765625 641.078125 75.546875 C 642.945313 77.347656 643.878906 79.519531 643.878906 82.0625 Z M 642.097656 82.085938 C 642.097656 80.003906 641.347656 78.210938 639.847656 76.71875 C 638.347656 75.226563 636.554688 74.480469 634.464844 74.480469 C 632.359375 74.480469 630.5625 75.234375 629.078125 76.742188 C 627.601563 78.25 626.863281 80.054688 626.863281 82.160156 C 626.863281 84.203125 627.621094 85.964844 629.136719 87.441406 C 630.636719 88.910156 632.414063 89.648438 634.464844 89.648438 C 636.546875 89.648438 638.335938 88.90625 639.835938 87.429688 C 641.34375 85.953125 642.097656 84.175781 642.097656 82.085938 Z M 636.367188 72.175781 L 631.609375 69.605469 L 632.382813 68.167969 L 637.148438 70.789063 Z M 659.054688 90.945313 L 648.519531 75.328125 L 648.472656 75.328125 L 648.472656 90.945313 L 646.691406 90.945313 L 646.691406 73.183594 L 649.09375 73.183594 L 659.007813 87.921875 L 659.054688 87.921875 L 659.054688 73.183594 L 660.824219 73.183594 L 660.824219 90.945313 Z M 659.054688 90.945313 "/>
<g clip-path="url(#clip2)" clip-rule="nonzero">
<path style=" stroke:none;fill-rule:evenodd;fill:rgb(10.594177%,9.812927%,9.423828%);fill-opacity:1;" d="M 245.78125 122.296875 C 245.78125 123.769531 245.199219 125.003906 244.035156 126.011719 C 242.890625 127.011719 241.503906 127.511719 239.875 127.511719 C 238.128906 127.511719 236.691406 127.027344 235.574219 126.058594 C 234.449219 125.09375 233.871094 123.8125 233.84375 122.226563 L 235.808594 122.226563 C 235.921875 124.671875 237.273438 125.894531 239.875 125.894531 C 240.96875 125.894531 241.894531 125.558594 242.65625 124.886719 C 243.429688 124.199219 243.816406 123.359375 243.816406 122.367188 C 243.816406 121.296875 243.355469 120.441406 242.433594 119.789063 C 242.0625 119.53125 241.601563 119.292969 241.039063 119.074219 C 240.617188 118.917969 240.089844 118.753906 239.449219 118.582031 C 238.632813 118.363281 237.976563 118.15625 237.488281 117.960938 C 236.835938 117.710938 236.296875 117.433594 235.875 117.117188 C 234.871094 116.367188 234.375 115.292969 234.375 113.894531 C 234.375 112.511719 234.914063 111.367188 235.988281 110.460938 C 237.046875 109.570313 238.34375 109.125 239.875 109.125 C 241.394531 109.125 242.671875 109.582031 243.710938 110.496094 C 244.769531 111.425781 245.300781 112.578125 245.300781 113.953125 L 243.335938 113.953125 C 243.335938 113.078125 243.003906 112.324219 242.332031 111.691406 C 241.648438 111.050781 240.832031 110.730469 239.875 110.730469 C 238.882813 110.730469 238.050781 111.023438 237.371094 111.609375 C 236.679688 112.195313 236.335938 112.9375 236.335938 113.824219 C 236.335938 114.855469 236.859375 115.640625 237.914063 116.179688 C 238.300781 116.375 238.804688 116.5625 239.421875 116.742188 L 240.988281 117.164063 C 242.476563 117.570313 243.628906 118.175781 244.433594 118.980469 C 245.332031 119.871094 245.78125 120.976563 245.78125 122.296875 Z M 262.621094 127.195313 L 259.777344 121.21875 L 250.6875 121.21875 L 247.828125 127.195313 L 245.789063 127.195313 L 254.148438 109.429688 L 256.34375 109.429688 L 264.75 127.195313 Z M 255.257813 111.457031 L 251.421875 119.613281 L 259.015625 119.613281 Z M 267.046875 109.429688 L 269.011719 109.429688 L 269.011719 127.195313 L 267.046875 127.195313 Z M 292.910156 119.039063 C 292.695313 121.453125 291.585938 123.472656 289.578125 125.101563 C 287.589844 126.707031 285.253906 127.511719 282.5625 127.511719 C 279.75 127.511719 277.304688 126.621094 275.226563 124.839844 C 273.121094 123.027344 272.0625 120.851563 272.0625 118.3125 C 272.0625 115.75 273.109375 113.570313 275.199219 111.777344 C 277.25 110.007813 279.699219 109.125 282.535156 109.125 C 285.769531 109.125 288.433594 110.210938 290.535156 112.382813 C 291.105469 112.960938 291.523438 113.554688 291.800781 114.164063 L 289.527344 114.164063 C 288.855469 113.109375 287.859375 112.269531 286.546875 111.632813 C 285.273438 111.03125 283.953125 110.730469 282.5625 110.730469 C 280.230469 110.730469 278.230469 111.46875 276.558594 112.945313 C 274.871094 114.429688 274.027344 116.226563 274.027344 118.335938 C 274.027344 120.460938 274.878906 122.257813 276.585938 123.726563 C 278.273438 125.171875 280.292969 125.894531 282.644531 125.894531 C 284.40625 125.894531 286.046875 125.40625 287.5625 124.429688 C 289.128906 123.421875 290.128906 122.160156 290.5625 120.644531 L 279.632813 120.644531 L 279.632813 119.039063 Z M 315.925781 118.3125 C 315.925781 120.859375 314.894531 123.035156 312.828125 124.839844 C 310.792969 126.621094 308.367188 127.511719 305.550781 127.511719 C 302.78125 127.511719 300.371094 126.628906 298.320313 124.863281 C 296.246094 123.066406 295.207031 120.914063 295.207031 118.40625 C 295.207031 115.828125 296.21875 113.632813 298.242188 111.820313 C 300.257813 110.023438 302.695313 109.125 305.550781 109.125 C 308.378906 109.125 310.808594 110.015625 312.839844 111.796875 C 314.898438 113.59375 315.925781 115.765625 315.925781 118.3125 Z M 313.964844 118.335938 C 313.964844 116.25 313.136719 114.460938 311.480469 112.96875 C 309.828125 111.476563 307.851563 110.730469 305.550781 110.730469 C 303.226563 110.730469 301.25 111.484375 299.613281 112.992188 C 297.984375 114.5 297.171875 116.304688 297.171875 118.40625 C 297.171875 120.453125 298.007813 122.214844 299.679688 123.691406 C 301.332031 125.160156 303.289063 125.894531 305.550781 125.894531 C 307.84375 125.894531 309.816406 125.15625 311.46875 123.679688 C 313.128906 122.203125 313.964844 120.421875 313.964844 118.335938 Z M 332.652344 127.195313 L 321.039063 111.574219 L 320.992188 111.574219 L 320.992188 127.195313 L 319.023438 127.195313 L 319.023438 109.429688 L 321.675781 109.429688 L 332.601563 124.171875 L 332.652344 124.171875 L 332.652344 109.429688 L 334.601563 109.429688 L 334.601563 127.195313 Z M 359.542969 127.195313 L 347.929688 111.574219 L 347.882813 111.574219 L 347.882813 127.195313 L 345.914063 127.195313 L 345.914063 109.429688 L 348.566406 109.429688 L 359.488281 124.171875 L 359.542969 124.171875 L 359.542969 109.429688 L 361.492188 109.429688 L 361.492188 127.195313 Z M 365.355469 127.195313 L 365.355469 109.429688 L 376.0625 109.429688 L 376.0625 111.046875 L 367.316406 111.046875 L 367.316406 117.421875 L 375.777344 117.421875 L 375.777344 119.039063 L 367.316406 119.039063 L 367.316406 125.589844 L 376.0625 125.589844 L 376.0625 127.195313 Z M 397.195313 127.195313 L 394.699219 127.195313 L 390.402344 112.628906 L 390.335938 112.628906 L 386.058594 127.195313 L 383.539063 127.195313 L 377.964844 109.429688 L 379.976563 109.429688 L 384.753906 124.910156 L 384.804688 124.910156 L 389.46875 109.429688 L 391.292969 109.429688 L 395.976563 124.886719 L 396.03125 124.886719 L 400.808594 109.429688 L 402.796875 109.429688 Z M 417.976563 114.738281 C 417.976563 116.582031 417.167969 118.007813 415.550781 119.015625 C 414.878906 119.429688 414.066406 119.714844 413.121094 119.871094 C 412.722656 119.9375 412.289063 119.980469 411.8125 120.011719 C 411.433594 120.035156 411 120.046875 410.5 120.046875 L 407.011719 120.046875 L 407.011719 127.195313 L 405.046875 127.195313 L 405.046875 109.429688 L 410.5 109.429688 C 411 109.429688 411.433594 109.445313 411.8125 109.464844 C 412.289063 109.496094 412.722656 109.542969 413.121094 109.609375 C 414.066406 109.773438 414.878906 110.058594 415.550781 110.472656 C 417.167969 111.472656 417.976563 112.894531 417.976563 114.738281 Z M 416.03125 114.738281 C 416.03125 113.230469 415.269531 112.152344 413.753906 111.503906 C 413.265625 111.285156 412.71875 111.148438 412.113281 111.09375 L 411.273438 111.046875 L 407.011719 111.046875 L 407.011719 118.429688 L 411.273438 118.429688 L 412.113281 118.382813 C 412.71875 118.328125 413.265625 118.195313 413.753906 117.984375 C 415.269531 117.328125 416.03125 116.246094 416.03125 114.738281 Z M 440.582031 118.3125 C 440.582031 120.859375 439.550781 123.035156 437.484375 124.839844 C 435.449219 126.621094 433.027344 127.511719 430.207031 127.511719 C 427.441406 127.511719 425.027344 126.628906 422.976563 124.863281 C 420.902344 123.066406 419.863281 120.914063 419.863281 118.40625 C 419.863281 115.828125 420.875 113.632813 422.898438 111.820313 C 424.914063 110.023438 427.351563 109.125 430.207031 109.125 C 433.035156 109.125 435.464844 110.015625 437.496094 111.796875 C 439.554688 113.59375 440.582031 115.765625 440.582031 118.3125 Z M 438.621094 118.335938 C 438.621094 116.25 437.792969 114.460938 436.136719 112.96875 C 434.484375 111.476563 432.511719 110.730469 430.207031 110.730469 C 427.886719 110.730469 425.90625 111.484375 424.269531 112.992188 C 422.644531 114.5 421.828125 116.304688 421.828125 118.40625 C 421.828125 120.453125 422.664063 122.214844 424.335938 123.691406 C 425.988281 125.160156 427.945313 125.894531 430.207031 125.894531 C 432.5 125.894531 434.472656 125.15625 436.125 123.679688 C 437.789063 122.203125 438.621094 120.421875 438.621094 118.335938 Z M 454.222656 122.296875 C 454.222656 123.769531 453.640625 125.003906 452.476563 126.011719 C 451.335938 127.011719 449.945313 127.511719 448.320313 127.511719 C 446.574219 127.511719 445.136719 127.027344 444.015625 126.058594 C 442.894531 125.09375 442.316406 123.8125 442.289063 122.226563 L 444.25 122.226563 C 444.367188 124.671875 445.71875 125.894531 448.320313 125.894531 C 449.414063 125.894531 450.339844 125.558594 451.097656 124.886719 C 451.875 124.199219 452.261719 123.359375 452.261719 122.367188 C 452.261719 121.296875 451.796875 120.441406 450.878906 119.789063 C 450.507813 119.53125 450.042969 119.292969 449.484375 119.074219 C 449.0625 118.917969 448.53125 118.753906 447.890625 118.582031 C 447.078125 118.363281 446.417969 118.15625 445.929688 117.960938 C 445.277344 117.710938 444.738281 117.433594 444.316406 117.117188 C 443.316406 116.367188 442.816406 115.292969 442.816406 113.894531 C 442.816406 112.511719 443.355469 111.367188 444.433594 110.460938 C 445.488281 109.570313 446.785156 109.125 448.320313 109.125 C 449.835938 109.125 451.113281 109.582031 452.15625 110.496094 C 453.214844 111.425781 453.742188 112.578125 453.742188 113.953125 L 451.78125 113.953125 C 451.78125 113.078125 451.445313 112.324219 450.777344 111.691406 C 450.09375 111.050781 449.277344 110.730469 448.320313 110.730469 C 447.328125 110.730469 446.496094 111.023438 445.816406 111.609375 C 445.125 112.195313 444.78125 112.9375 444.78125 113.824219 C 444.78125 114.855469 445.304688 115.640625 446.359375 116.179688 C 446.746094 116.375 447.25 116.5625 447.867188 116.742188 L 449.429688 117.164063 C 450.921875 117.570313 452.070313 118.175781 452.878906 118.980469 C 453.773438 119.871094 454.222656 120.976563 454.222656 122.296875 Z M 461.480469 111.046875 L 461.480469 127.195313 L 459.519531 127.195313 L 459.519531 111.046875 L 455.023438 111.046875 L 455.023438 109.429688 L 465.953125 109.429688 L 465.953125 111.046875 Z M 493.851563 122.542969 C 491.863281 125.855469 488.855469 127.511719 484.835938 127.511719 C 482.007813 127.511719 479.601563 126.625 477.601563 124.851563 C 475.59375 123.0625 474.59375 120.890625 474.59375 118.335938 C 474.59375 115.75 475.582031 113.570313 477.566406 111.796875 C 479.535156 110.03125 481.953125 109.148438 484.808594 109.148438 C 487.898438 109.148438 490.472656 110.203125 492.53125 112.3125 C 493.101563 112.890625 493.515625 113.453125 493.773438 114 L 491.574219 114 C 489.976563 111.835938 487.703125 110.753906 484.769531 110.753906 C 482.542969 110.753906 480.605469 111.519531 478.972656 113.050781 C 477.363281 114.558594 476.554688 116.328125 476.554688 118.359375 C 476.554688 120.359375 477.378906 122.113281 479.023438 123.621094 C 480.675781 125.136719 482.605469 125.894531 484.808594 125.894531 C 486.179688 125.894531 487.464844 125.589844 488.671875 124.980469 C 489.789063 124.402344 490.785156 123.589844 491.65625 122.542969 Z M 516.816406 118.3125 C 516.816406 120.859375 515.785156 123.035156 513.71875 124.839844 C 511.683594 126.621094 509.261719 127.511719 506.441406 127.511719 C 503.675781 127.511719 501.261719 126.628906 499.210938 124.863281 C 497.136719 123.066406 496.101563 120.914063 496.101563 118.40625 C 496.101563 115.828125 497.109375 113.632813 499.132813 111.820313 C 501.148438 110.023438 503.585938 109.125 506.441406 109.125 C 509.269531 109.125 511.699219 110.015625 513.730469 111.796875 C 515.789063 113.59375 516.816406 115.765625 516.816406 118.3125 Z M 514.855469 118.335938 C 514.855469 116.25 514.027344 114.460938 512.371094 112.96875 C 510.71875 111.476563 508.746094 110.730469 506.441406 110.730469 C 504.121094 110.730469 502.140625 111.484375 500.503906 112.992188 C 498.878906 114.5 498.0625 116.304688 498.0625 118.40625 C 498.0625 120.453125 498.898438 122.214844 500.570313 123.691406 C 502.222656 125.160156 504.179688 125.894531 506.441406 125.894531 C 508.734375 125.894531 510.707031 125.15625 512.359375 123.679688 C 514.023438 122.203125 514.855469 120.421875 514.855469 118.335938 Z M 533.066406 115.171875 C 533.066406 116.664063 532.507813 117.917969 531.386719 118.933594 C 530.292969 119.925781 528.914063 120.472656 527.253906 120.574219 L 532.78125 127.195313 L 530.316406 127.195313 L 523.675781 119.15625 L 525.792969 119.144531 C 526.679688 119.121094 527.378906 119.035156 527.886719 118.886719 C 530.039063 118.292969 531.113281 117.039063 531.113281 115.125 C 531.113281 113.554688 530.402344 112.417969 528.972656 111.714844 C 528.414063 111.445313 527.792969 111.253906 527.125 111.152344 C 526.625 111.082031 525.96875 111.046875 525.164063 111.046875 L 521.75 111.046875 L 521.75 127.195313 L 519.789063 127.195313 L 519.789063 109.429688 L 524.761719 109.429688 C 525.203125 109.429688 525.59375 109.441406 525.949219 109.453125 C 526.40625 109.476563 526.824219 109.507813 527.203125 109.546875 C 528.164063 109.65625 528.957031 109.84375 529.582031 110.109375 C 531.902344 111.125 533.066406 112.8125 533.066406 115.171875 Z M 548.90625 114.738281 C 548.90625 116.582031 548.09375 118.007813 546.476563 119.015625 C 545.804688 119.429688 544.996094 119.714844 544.046875 119.871094 C 543.648438 119.9375 543.21875 119.980469 542.742188 120.011719 C 542.363281 120.035156 541.925781 120.046875 541.425781 120.046875 L 537.941406 120.046875 L 537.941406 127.195313 L 535.972656 127.195313 L 535.972656 109.429688 L 541.425781 109.429688 C 541.925781 109.429688 542.363281 109.445313 542.742188 109.464844 C 543.21875 109.496094 543.648438 109.542969 544.046875 109.609375 C 544.996094 109.773438 545.804688 110.058594 546.476563 110.472656 C 548.09375 111.472656 548.90625 112.894531 548.90625 114.738281 Z M 546.957031 114.738281 C 546.957031 113.230469 546.199219 112.152344 544.679688 111.503906 C 544.191406 111.285156 543.644531 111.148438 543.042969 111.09375 L 542.199219 111.046875 L 537.941406 111.046875 L 537.941406 118.429688 L 542.199219 118.429688 L 543.042969 118.382813 C 543.644531 118.328125 544.191406 118.195313 544.679688 117.984375 C 546.199219 117.328125 546.957031 116.246094 546.957031 114.738281 Z M 571.507813 118.3125 C 571.507813 120.859375 570.476563 123.035156 568.410156 124.839844 C 566.378906 126.621094 563.953125 127.511719 561.136719 127.511719 C 558.367188 127.511719 555.953125 126.628906 553.90625 124.863281 C 551.828125 123.066406 550.792969 120.914063 550.792969 118.40625 C 550.792969 115.828125 551.800781 113.632813 553.824219 111.820313 C 555.839844 110.023438 558.277344 109.125 561.136719 109.125 C 563.960938 109.125 566.390625 110.015625 568.421875 111.796875 C 570.480469 113.59375 571.507813 115.765625 571.507813 118.3125 Z M 569.546875 118.335938 C 569.546875 116.25 568.71875 114.460938 567.066406 112.96875 C 565.410156 111.476563 563.4375 110.730469 561.136719 110.730469 C 558.8125 110.730469 556.832031 111.484375 555.195313 112.992188 C 553.570313 114.5 552.753906 116.304688 552.753906 118.40625 C 552.753906 120.453125 553.589844 122.214844 555.261719 123.691406 C 556.914063 125.160156 558.875 125.894531 561.136719 125.894531 C 563.429688 125.894531 565.398438 125.15625 567.050781 123.679688 C 568.714844 122.203125 569.546875 120.421875 569.546875 118.335938 Z M 587.761719 115.171875 C 587.761719 116.664063 587.199219 117.917969 586.082031 118.933594 C 584.988281 119.925781 583.605469 120.472656 581.945313 120.574219 L 587.472656 127.195313 L 585.007813 127.195313 L 578.371094 119.15625 L 580.484375 119.144531 C 581.371094 119.121094 582.074219 119.035156 582.582031 118.886719 C 584.730469 118.292969 585.808594 117.039063 585.808594 115.125 C 585.808594 113.554688 585.09375 112.417969 583.664063 111.714844 C 583.105469 111.445313 582.488281 111.253906 581.816406 111.152344 C 581.320313 111.082031 580.660156 111.046875 579.855469 111.046875 L 576.441406 111.046875 L 576.441406 127.195313 L 574.480469 127.195313 L 574.480469 109.429688 L 579.453125 109.429688 C 579.894531 109.429688 580.289063 109.441406 580.640625 109.453125 C 581.097656 109.476563 581.515625 109.507813 581.898438 109.546875 C 582.859375 109.65625 583.652344 109.84375 584.273438 110.109375 C 586.597656 111.125 587.761719 112.8125 587.761719 115.171875 Z M 604.890625 127.195313 L 602.046875 121.21875 L 592.953125 121.21875 L 590.097656 127.195313 L 588.054688 127.195313 L 596.414063 109.429688 L 598.609375 109.429688 L 607.019531 127.195313 Z M 597.527344 111.457031 L 593.691406 119.613281 L 601.28125 119.613281 Z M 611.5 111.046875 L 611.5 127.195313 L 609.535156 127.195313 L 609.535156 111.046875 L 605.039063 111.046875 L 605.039063 109.429688 L 615.96875 109.429688 L 615.96875 111.046875 Z M 618.152344 109.429688 L 620.113281 109.429688 L 620.113281 127.195313 L 618.152344 127.195313 Z M 643.972656 118.3125 C 643.972656 120.859375 642.941406 123.035156 640.875 124.839844 C 638.84375 126.621094 636.417969 127.511719 633.601563 127.511719 C 630.832031 127.511719 628.417969 126.628906 626.371094 124.863281 C 624.292969 123.066406 623.257813 120.914063 623.257813 118.40625 C 623.257813 115.828125 624.265625 113.632813 626.289063 111.820313 C 628.304688 110.023438 630.742188 109.125 633.601563 109.125 C 636.425781 109.125 638.855469 110.015625 640.886719 111.796875 C 642.945313 113.59375 643.972656 115.765625 643.972656 118.3125 Z M 642.011719 118.335938 C 642.011719 116.25 641.183594 114.460938 639.53125 112.96875 C 637.875 111.476563 635.902344 110.730469 633.601563 110.730469 C 631.277344 110.730469 629.296875 111.484375 627.660156 112.992188 C 626.035156 114.5 625.21875 116.304688 625.21875 118.40625 C 625.21875 120.453125 626.054688 122.214844 627.726563 123.691406 C 629.378906 125.160156 631.339844 125.894531 633.601563 125.894531 C 635.890625 125.894531 637.863281 125.15625 639.515625 123.679688 C 641.179688 122.203125 642.011719 120.421875 642.011719 118.335938 Z M 660.703125 127.195313 L 649.089844 111.574219 L 649.039063 111.574219 L 649.039063 127.195313 L 647.074219 127.195313 L 647.074219 109.429688 L 649.722656 109.429688 L 660.648438 124.171875 L 660.703125 124.171875 L 660.703125 109.429688 L 662.648438 109.429688 L 662.648438 127.195313 Z M 660.703125 127.195313 "/>
</g>
</g>
</svg>
